# xmcd
#
# Track frame offsets:
#	150
#	9162
#	21482
#	32952
#	45947
#	56002
#	65007
#	76707
#	86720
#	99590
#	107492
#	117522
#	132332
#	144160
#	157655
#	171612
#	182180
#	190222
#	202362
#	217190
#
# Disc length: 3024
#
# Revision: 2
# Processed by: cddbd v1.5.1PL0 Copyright (c) Steve Scherf et al.
# Submitted via: EasyCDDAExtractor 5.1.0
# Normalized: r1:DSETVAR1
#
DISCID=1d0bce14
DTITLE=Various Artist - Mega Country CD3
DYEAR=2003
DGENRE=Country
TTITLE0=Frankie Laine - Rawhide
TTITLE1=Lynn Anderson - Stand by your man
TTITLE2=Freddy Fender - Before the next teardrop falls
TTITLE3=Kenny Rogers - Ruby don't take your love to town
TTITLE4=Patsy Cline - Three cigarettes in a ashtray
TTITLE5=Roger Miller - Chug a lug
TTITLE6=Waylon Jennings - Crying
TTITLE7=Porter Wagoner - Th e green green grass of home
TTITLE8=Stonewall Jackson - I washed my hand in muddy water
TTITLE9=Annes Murray - Paths to victory
TTITLE10=Conway Twitty - It's only make believe
TTITLE11=Donna Fargo - You were always there
TTITLE12=Jack Greene - There goes my everything
TTITLE13=Jimmy Dean - Big bad John
TTITLE14=Lee Greenwood - Dixie Road
TTITLE15=Charlie Rich - Who will the next fool be
TTITLE16=Don Gibson - Blue blue day
TTITLE17=Faron Young - Country girl
TTITLE18=Jeanni C. Riley - Harper valley P.T.A.
TTITLE19=Willie Nelson - Misery mansion
EXTD=
EXTT0=
EXTT1=
EXTT2=
EXTT3=
EXTT4=
EXTT5=
EXTT6=
EXTT7=
EXTT8=
EXTT9=
EXTT10=
EXTT11=
EXTT12=
EXTT13=
EXTT14=
EXTT15=
EXTT16=
EXTT17=
EXTT18=
EXTT19=
PLAYORDER=
